<?xml version="1.0" encoding="UTF-8" standalone="no"?>
<!DOCTYPE svg PUBLIC "-//W3C//DTD SVG 1.1//EN"
 "http://www.w3.org/Graphics/SVG/1.1/DTD/svg11.dtd">
<!-- Generated by graphviz version 2.38.0 (20140413.2041)
 -->
<!-- Title: %3 Pages: 1 -->
<svg width="519pt" height="116pt"
 viewBox="0.00 0.00 519.33 116.00" xmlns="http://www.w3.org/2000/svg" xmlns:xlink="http://www.w3.org/1999/xlink">
<g id="graph0" class="graph" transform="scale(1 1) rotate(0) translate(4 112)">
<title>%3</title>
<polygon fill="white" stroke="none" points="-4,4 -4,-112 515.334,-112 515.334,4 -4,4"/>
<!-- 12345 -->
<g id="node1" class="node"><title>12345</title>
<ellipse fill="none" stroke="black" cx="85.7924" cy="-18" rx="85.5853" ry="18"/>
<text text-anchor="middle" x="85.7924" y="-14.3" font-family="Times,serif" font-size="14.00">Dinosaur Riding</text>
</g>
<!-- 12346 -->
<g id="node2" class="node"><title>12346</title>
<ellipse fill="none" stroke="black" cx="260.792" cy="-18" rx="71.4873" ry="18"/>
<text text-anchor="middle" x="260.792" y="-14.3" font-family="Times,serif" font-size="14.00">Train Surfing</text>
</g>
<!-- 123 -->
<g id="node3" class="node"><title>123</title>
<ellipse fill="none" stroke="black" cx="132.792" cy="-90" rx="122.678" ry="18"/>
<text text-anchor="middle" x="132.792" y="-86.3" font-family="Times,serif" font-size="14.00">Extreme Transportation</text>
</g>
<!-- 123&#45;&#45;12345 -->
<g id="edge1" class="edge"><title>123&#45;&#45;12345</title>
<path fill="none" stroke="black" d="M121.415,-72.055C114.134,-61.2111 104.715,-47.183 97.3915,-36.2753"/>
</g>
<!-- 123&#45;&#45;12346 -->
<g id="edge2" class="edge"><title>123&#45;&#45;12346</title>
<path fill="none" stroke="black" d="M163.127,-72.411C183.974,-61.0098 211.485,-45.965 231.994,-34.7489"/>
</g>
<!-- 23456 -->
<g id="node4" class="node"><title>23456</title>
<ellipse fill="none" stroke="black" cx="415.792" cy="-18" rx="65.7887" ry="18"/>
<text text-anchor="middle" x="415.792" y="-14.3" font-family="Times,serif" font-size="14.00">Time Travel</text>
</g>
<!-- 2345 -->
<g id="node5" class="node"><title>2345</title>
<ellipse fill="none" stroke="black" cx="415.792" cy="-90" rx="95.5831" ry="18"/>
<text text-anchor="middle" x="415.792" y="-86.3" font-family="Times,serif" font-size="14.00">Advanced Science</text>
</g>
<!-- 2345&#45;&#45;23456 -->
<g id="edge3" class="edge"><title>2345&#45;&#45;23456</title>
<path fill="none" stroke="black" d="M415.792,-71.6966C415.792,-60.8463 415.792,-46.9167 415.792,-36.1043"/>
</g>
</g>
</svg>
