<?xml version="1.0" encoding="UTF-8" standalone="no"?>
<!DOCTYPE svg PUBLIC "-//W3C//DTD SVG 1.1//EN"
 "http://www.w3.org/Graphics/SVG/1.1/DTD/svg11.dtd">
<!-- Generated by graphviz version 2.38.0 (20140413.2041)
 -->
<!-- Title: %3 Pages: 1 -->
<svg width="1189pt" height="246pt"
 viewBox="0.00 0.00 1189.00 246.00" xmlns="http://www.w3.org/2000/svg" xmlns:xlink="http://www.w3.org/1999/xlink">
<g id="graph0" class="graph" transform="scale(1 1) rotate(0) translate(4 242)">
<title>%3</title>
<polygon fill="white" stroke="none" points="-4,4 -4,-242 1185,-242 1185,4 -4,4"/>
<g id="clust1" class="cluster"><title>cluster_competencies</title>
<polygon fill="none" stroke="black" points="8,-80 8,-230 505,-230 505,-80 8,-80"/>
<text text-anchor="middle" x="256.5" y="-214.8" font-family="Times,serif" font-size="14.00">Competencies</text>
</g>
<g id="clust2" class="cluster"><title>cluster_occupations</title>
<polygon fill="none" stroke="black" points="513,-8 513,-155 1173,-155 1173,-8 513,-8"/>
<text text-anchor="middle" x="843" y="-139.8" font-family="Times,serif" font-size="14.00">Occupations</text>
</g>
<!-- 123 -->
<g id="node1" class="node"><title>123</title>
<ellipse fill="none" stroke="black" cx="361" cy="-181" rx="122.678" ry="18"/>
<text text-anchor="middle" x="361" y="-177.3" font-family="Times,serif" font-size="14.00">Extreme Transportation</text>
</g>
<!-- 12345 -->
<g id="node2" class="node"><title>12345</title>
<ellipse fill="none" stroke="black" cx="251" cy="-106" rx="85.5853" ry="18"/>
<text text-anchor="middle" x="251" y="-102.3" font-family="Times,serif" font-size="14.00">Dinosaur Riding</text>
</g>
<!-- 123&#45;&#45;12345 -->
<g id="edge1" class="edge"><title>123&#45;&#45;12345</title>
<path fill="none" stroke="black" d="M335.764,-163.252C317.75,-151.298 293.64,-135.298 275.74,-123.418"/>
</g>
<!-- 12346 -->
<g id="node3" class="node"><title>12346</title>
<ellipse fill="none" stroke="black" cx="426" cy="-106" rx="71.4873" ry="18"/>
<text text-anchor="middle" x="426" y="-102.3" font-family="Times,serif" font-size="14.00">Train Surfing</text>
</g>
<!-- 123&#45;&#45;12346 -->
<g id="edge2" class="edge"><title>123&#45;&#45;12346</title>
<path fill="none" stroke="black" d="M376.076,-163.069C386.577,-151.276 400.523,-135.613 411.006,-123.839"/>
</g>
<!-- 9998 -->
<g id="node6" class="node"><title>9998</title>
<ellipse fill="none" stroke="black" cx="670" cy="-34" rx="148.674" ry="18"/>
<text text-anchor="middle" x="670" y="-30.3" font-family="Times,serif" font-size="14.00">Deliverer of Items to the Past</text>
</g>
<!-- 12345&#45;&#45;9998 -->
<g id="edge8" class="edge"><title>12345&#45;&#45;9998</title>
<path fill="none" stroke="black" stroke-dasharray="5,2" d="M299.557,-91.0293C314.38,-87.0877 330.783,-83.0478 346,-80 417.972,-65.5855 499.859,-54.2555 563.303,-46.5697"/>
</g>
<!-- 9999 -->
<g id="node7" class="node"><title>9999</title>
<ellipse fill="none" stroke="black" cx="1001" cy="-34" rx="164.371" ry="18"/>
<text text-anchor="middle" x="1001" y="-30.3" font-family="Times,serif" font-size="14.00">Deliverer of Items to Train Yards</text>
</g>
<!-- 12346&#45;&#45;9999 -->
<g id="edge7" class="edge"><title>12346&#45;&#45;9999</title>
<path fill="none" stroke="black" stroke-dasharray="5,2" d="M466.535,-90.9779C479.911,-86.8399 494.961,-82.7008 509,-80 648.76,-53.1133 686.289,-65.1816 828,-52 846.03,-50.3229 865.111,-48.4981 883.761,-46.687"/>
</g>
<!-- 23456 -->
<g id="node4" class="node"><title>23456</title>
<ellipse fill="none" stroke="black" cx="82" cy="-106" rx="65.7887" ry="18"/>
<text text-anchor="middle" x="82" y="-102.3" font-family="Times,serif" font-size="14.00">Time Travel</text>
</g>
<!-- 23456&#45;&#45;9998 -->
<g id="edge6" class="edge"><title>23456&#45;&#45;9998</title>
<path fill="none" stroke="black" stroke-dasharray="5,2" d="M118.031,-90.9082C129.95,-86.7661 143.391,-82.6422 156,-80 279.181,-54.1873 421.975,-43.1535 525.749,-38.4516"/>
</g>
<!-- 2345 -->
<g id="node5" class="node"><title>2345</title>
<ellipse fill="none" stroke="black" cx="112" cy="-181" rx="95.5831" ry="18"/>
<text text-anchor="middle" x="112" y="-177.3" font-family="Times,serif" font-size="14.00">Advanced Science</text>
</g>
<!-- 2345&#45;&#45;23456 -->
<g id="edge3" class="edge"><title>2345&#45;&#45;23456</title>
<path fill="none" stroke="black" d="M104.89,-162.7C100.074,-150.979 93.739,-135.565 88.9551,-123.924"/>
</g>
<!-- 999 -->
<g id="node8" class="node"><title>999</title>
<ellipse fill="none" stroke="black" cx="835" cy="-106" rx="124.278" ry="18"/>
<text text-anchor="middle" x="835" y="-102.3" font-family="Times,serif" font-size="14.00">Extreme Postal Workers</text>
</g>
<!-- 999&#45;&#45;9998 -->
<g id="edge4" class="edge"><title>999&#45;&#45;9998</title>
<path fill="none" stroke="black" d="M796.731,-88.7646C770.265,-77.5368 735.177,-62.651 708.633,-51.3898"/>
</g>
<!-- 999&#45;&#45;9999 -->
<g id="edge5" class="edge"><title>999&#45;&#45;9999</title>
<path fill="none" stroke="black" d="M873.501,-88.7646C900.031,-77.5771 935.174,-62.7581 961.844,-51.5115"/>
</g>
</g>
</svg>
